Motion_pu07
version=1
nRows=13
nColumns=43
inDegrees=yes
endheader
time	pelvis_tilt	pelvis_list	pelvis_rotation	pelvis_tx	pelvis_ty	pelvis_tz	hip_flexion_r	hip_adduction_r	hip_rotation_r	knee_angle_r	ankle_angle_r	subtalar_angle_r	mtp_angle_r	hip_flexion_l	hip_adduction_l	hip_rotation_l	knee_angle_l	ankle_angle_l	subtalar_angle_l	mtp_angle_l	lumbar_extension	lumbar_bending	lumbar_rotation	neck_flexion	neck_lateral_bending	neck_rotation	arm_flex_r	arm_add_r	arm_rot_r	elbow_flex_r	pro_sup_r	wrist_flex_r	wrist_dev_r	hand_finger_flex_r	arm_flex_l	arm_add_l	arm_rot_l	elbow_flex_l	pro_sup_l	wrist_flex_l	wrist_dev_l	hand_finger_flex_l
      0.82250000	     -0.17846845	      8.19505900	     89.76021090	     -0.02045688	      0.42841400	      0.43670338	     93.45408425	     -3.07923301	      5.96170080	   -142.89536369	     22.39463009	      2.41716544	     18.24729070	     90.23746049	     -3.99092785	      4.90873159	   -143.22494387	     24.60639258	     17.05466094	     32.36840503	    -66.77592959	     -0.74017889	      2.47644200	     29.65994764	     -0.09367233	     -5.47051906	     83.75729347	    -27.72325544	     13.81360091	     80.48571422	    104.71321511	      2.07357083	    -19.49961986	     20.19354776	     69.41138047	    -23.57084092	     11.21146306	     77.54792930	    119.70319426	    -36.76204328	    -15.96417868	      4.19596780
      0.82500000	     -0.25872853	      8.12392214	     89.79122920	     -0.02056880	      0.42776606	      0.43613478	     93.50797099	     -3.21954353	      5.93469594	   -142.99280965	     22.62339178	      2.32741908	     18.22938717	     90.33440434	     -4.01247478	      4.89824654	   -143.26922761	     24.69406407	     17.17598538	     32.36198205	    -67.04563642	     -0.79754621	      2.32762177	     29.76415618	     -0.00468877	     -5.54491625	     84.06815489	    -27.37231754	     13.46938182	     80.73563733	    104.64911203	      2.06112635	    -19.58374030	     20.16827417	     69.86274067	    -23.45276125	     11.01283830	     77.65108332	    119.71868025	    -36.77061649	    -15.99236171	      4.29951247
      0.82750000	     -0.29645014	      8.04879032	     89.76969914	     -0.02065595	      0.42707727	      0.43548709	     93.61889548	     -3.32440333	      5.95313107	   -143.11358502	     22.68433728	      2.30162518	     18.22847473	     90.45815775	     -4.06760516	      4.95108557	   -143.39101955	     24.73287828	     17.19792033	     32.36392797	    -67.26846697	     -0.84237605	      2.28276219	     29.67406644	      0.02556916	     -5.55743086	     84.40028044	    -27.17775500	     13.32747223	     80.96521470	    104.60618563	      2.03884428	    -19.64218635	     20.15283231	     70.20053421	    -23.36969130	     10.91120439	     77.75604836	    119.71304837	    -36.78500072	    -16.00976364	      4.31028598
      0.83000000	     -0.41341371	      7.86627096	     89.84027451	     -0.02064099	      0.42671546	      0.43494661	     93.70326722	     -3.49798130	      5.92327819	   -143.14411089	     23.19338761	      2.08002372	     18.08770834	     90.54101832	     -4.06613677	      5.00883721	   -143.33935376	     25.03197879	     17.92797071	     32.31101890	    -67.48562310	     -0.95797890	      2.01530640	     30.03711218	      0.43952570	     -5.67449588	     84.32326397	    -26.57562808	     12.34731164	     81.38213665	    104.28728172	      2.33212498	    -19.77082097	     20.15649468	     70.51937474	    -23.27078666	     10.54135212	     78.03065191	    119.67096858	    -36.74750418	    -16.20909291	      4.72405289
      0.83250000	     -0.45366939	      7.75897637	     89.87325564	     -0.02073555	      0.42643660	      0.43451812	     93.79240825	     -3.65465977	      5.85110085	   -143.17730398	     23.24331438	      2.06100042	     18.04380077	     90.63383541	     -4.10401853	      4.99963263	   -143.32134875	     25.08397171	     18.07328594	     32.28963926	    -67.71828914	     -0.96954140	      1.91791346	     30.08697630	      0.47291314	     -5.66870606	     84.59227086	    -26.27916980	     12.09834870	     81.57716887	    104.18175107	      2.35897193	    -19.81846369	     20.12209104	     70.88130248	    -23.07909247	     10.32785814	     78.01677585	    119.57850392	    -36.78025187	    -16.17937072	      4.79072523
      0.83500000	     -0.52036996	      7.60889724	     89.92445437	     -0.02080863	      0.42613352	      0.43402508	     93.93090368	     -3.79631505	      5.86192039	   -143.24453196	     23.43639802	      1.94608817	     17.92849038	     90.73201505	     -4.09851420	      5.05202928	   -143.34471863	     25.27357044	     18.48444165	     32.23354793	    -67.93130682	     -1.01580240	      1.78187072	     30.29731977	      0.62529806	     -5.65990339	     84.61007664	    -25.89416491	     11.46961905	     81.92307177	    103.84118275	      2.47335334	    -19.92977164	     20.04622338	     71.09478458	    -22.91034833	     10.03037383	     78.22211007	    119.35268645	    -36.88816727	    -16.26276728	      4.96091282
      0.83750000	     -0.53003562	      7.49451958	     89.90195855	     -0.02091491	      0.42600266	      0.43369483	     94.05152172	     -3.88445524	      5.81977433	   -143.23360385	     23.45998246	      1.94212179	     17.91503648	     90.79809294	     -4.15565475	      5.06874477	   -143.33381203	     25.30625237	     18.52783191	     32.22724253	    -68.15827267	     -1.04295274	      1.72905213	     30.18993730	      0.65723506	     -5.65804559	     84.87193472	    -25.73776039	     11.35941202	     82.17337653	    103.77412577	      2.47122923	    -19.99238934	     20.02757670	     71.37445237	    -22.87193863	      9.90901274	     78.28412116	    119.30764445	    -36.91657969	    -16.26825523	      4.96951615
      0.84000000	     -0.54506154	      7.28269041	     89.92379270	     -0.02085708	      0.42602779	      0.43326264	     94.20265079	     -3.97583104	      5.65009324	   -143.20783341	     23.62533660	      1.64979141	     16.90427627	     90.88129519	     -4.23360333	      5.31818751	   -143.28124307	     25.72049179	     19.82616295	     31.59095727	    -68.33662260	     -1.09073432	      1.59294772	     30.41880524	      0.86043121	     -5.50305061	     84.81065068	    -25.33366493	     10.69559925	     82.59740209	    102.52777617	      3.40647511	    -19.67651885	     19.35571142	     71.56317878	    -22.85130791	      9.82617608	     78.48092566	    117.68635528	    -37.35949527	    -16.85371053	      6.12624362
      0.84250000	     -0.58156355	      7.06796075	     89.98754499	     -0.02108735	      0.42614082	      0.43297535	     94.38163037	     -4.16997411	      5.63072587	   -143.14527031	     23.69595466	      1.63291321	     16.84493200	     90.97232977	     -4.18039312	      5.25822923	   -143.21030915	     25.86049962	     19.81018766	     31.56351580	    -68.50447598	     -1.07157001	      1.47177668	     30.54417193	      0.96327151	     -5.48545528	     84.85849766	    -25.08710289	     10.37100766	     82.93954259	    102.36754338	      3.27185456	    -19.82198543	     19.22584104	     71.72496751	    -22.71797449	      9.57558379	     78.58426573	    117.55427648	    -37.54371346	    -16.87922865	      6.14552059
      0.84500000	     -0.60781874	      6.87869994	     89.99457636	     -0.02118762	      0.42643459	      0.43265583	     94.50048212	     -4.22427820	      5.56518323	   -143.05239815	     23.71234784	      1.61792583	     16.80343768	     91.02553227	     -4.23045148	      5.21345209	   -143.13107148	     25.94402827	     19.85008747	     31.54958986	    -68.68764307	     -1.09712034	      1.36869557	     30.54221280	      1.01594106	     -5.44638538	     84.92087149	    -24.91989925	     10.15561306	     83.28133273	    102.21234210	      3.20390833	    -19.95323100	     19.15619598	     71.86649122	    -22.65699925	      9.39488263	     78.72026990	    117.43155479	    -37.66940202	    -16.90250025	      6.14776602
      0.84750000	     -0.64177743	      6.62563598	     90.02717422	     -0.02138450	      0.42656678	      0.43233464	     94.76057171	     -4.31101832	      5.55642652	   -143.00301542	     23.73902112	      1.50649900	     16.69804192	     91.18399655	     -4.21708867	      5.17913657	   -143.09512218	     26.13753328	     19.97713659	     31.52495375	    -68.82523414	     -1.11876424	      1.25042767	     30.76320780	      1.15743300	     -5.33026903	     84.83261115	    -24.67190227	      9.72978374	     83.67581823	    101.83600586	      3.06577276	    -20.14845475	     19.01079662	     71.89600698	    -22.54649214	      9.13754164	     78.98302516	    117.09453804	    -37.91770420	    -16.95605642	      6.16449897
      0.85000000	     -0.65380695	      6.39020722	     90.03386044	     -0.02157643	      0.42693567	      0.43206071	     94.94002141	     -4.39488212	      5.47846187	   -142.88726150	     23.72782970	      1.39184344	     16.58783326	     91.27757290	     -4.24312655	      5.14112613	   -143.01214541	     26.24307602	     20.09632361	     31.49654275	    -68.97856093	     -1.12695206	      1.15678544	     30.85630256	      1.25263918	     -5.22836792	     84.80302118	    -24.49924662	      9.47871395	     84.06370921	    101.49523119	      2.99514581	    -20.29921680	     18.90824130	     71.92897857	    -22.52073731	      8.94959447	     79.19434032	    116.75674683	    -38.10385987	    -17.01317435	      6.19599782
      0.85250000	     -0.65577999	      6.16420174	     90.04315256	     -0.02173922	      0.42739770	      0.43180673	     95.09164375	     -4.45059780	      5.38683193	   -142.75890401	     23.71980446	      1.25288558	     16.47257400	     91.36825773	     -4.26835378	      5.10881056	   -142.91990259	     26.32657200	     20.19274122	     31.47183765	    -69.14202541	     -1.12888711	      1.07871263	     30.96415853	      1.31914467	     -5.13549265	     84.76034962	    -24.33177999	      9.23982049	     84.42995872	    101.14653740	      2.92595778	    -20.42915734	     18.81892293	     71.93895838	    -22.47548132	      8.75784471	     79.39967850	    116.39584232	    -38.27803227	    -17.08081054	      6.22997707
